<?xml version="1.0" encoding="iso-8859-1"?>
<!-- Generator: Adobe Illustrator 19.0.0, SVG Export Plug-In . SVG Version: 6.00 Build 0)  -->
<svg version="1.1" id="Layer_1" xmlns="http://www.w3.org/2000/svg" xmlns:xlink="http://www.w3.org/1999/xlink" x="0px" y="0px"
	 viewBox="0 0 512 512" style="enable-background:new 0 0 512 512;" xml:space="preserve">
<polygon style="fill:#94714D;" points="459.951,414.628 448.62,301.321 369.306,301.321 357.975,414.628 267.331,414.628 
	184.427,369.706 233.339,471.281 512,471.281 512,414.628 "/>
<polygon style="fill:#FFD699;" points="0,138.667 0,222.007 22.662,312.654 22.662,471.281 67.983,471.281 67.983,312.654 
	90.645,222.007 "/>
<polygon style="fill:#705436;" points="459.951,414.628 448.62,301.321 369.306,301.321 357.975,414.628 268.333,414.628 
	268.333,471.281 512,471.281 512,414.628 "/>
<path style="fill:#FC0023;" d="M459.951,414.628L448.62,301.321h-79.313l-11.331,113.306h-90.645
	c0,0-92.592-247.977-104.266-271.934C133.644,82.319,71.68,40.719,0,40.719l0,0v181.289h90.645h22.661L222.128,448H512v-33.372
	H459.951z"/>
<polygon style="fill:#C80018;" points="459.951,414.628 448.62,301.321 369.306,301.321 357.975,414.628 268.333,414.628 
	268.333,448 512,448 512,414.628 "/>
<rect x="22.662" y="448" style="fill:#705436;" width="45.32" height="23.281"/>
<g>
</g>
<g>
</g>
<g>
</g>
<g>
</g>
<g>
</g>
<g>
</g>
<g>
</g>
<g>
</g>
<g>
</g>
<g>
</g>
<g>
</g>
<g>
</g>
<g>
</g>
<g>
</g>
<g>
</g>
</svg>
