<?xml version="1.0" encoding="utf-8"?>
<!-- Generator: Adobe Illustrator 16.0.4, SVG Export Plug-In . SVG Version: 6.00 Build 0)  -->
<!DOCTYPE svg PUBLIC "-//W3C//DTD SVG 1.1//EN" "http://www.w3.org/Graphics/SVG/1.1/DTD/svg11.dtd">
<svg version="1.1" id="Layer_1" xmlns:sketch="http://www.bohemiancoding.com/sketch/ns"
	 xmlns="http://www.w3.org/2000/svg" xmlns:xlink="http://www.w3.org/1999/xlink" x="0px" y="0px" width="289.982px" height="303px"
	 viewBox="0 0 289.982 303" enable-background="new 0 0 289.982 303" xml:space="preserve">
<title>vinted</title>
<desc>Created with Sketch.</desc>
<g id="Page-1" sketch:type="MSPage">
	<g id="Color" transform="translate(0.000000, -1.000000)" sketch:type="MSLayerGroup">
		<g id="vinted" sketch:type="MSShapeGroup">
			<path id="Bubble" fill="#44BCD2" d="M289.916,98.434c0-33.545-2.081-56.442-24.953-76.995
				c-13.581-12.205-40.209-36.531-196.715-4.797c-7.4,1.503-66.952,12.566-68.218,68.773H0.014
				c-0.399,83.883,15.754,125.106,18.7,131.221c15.863,32.144,50.792,40.194,82.64,43.979c17.252,2.05,32.861,3.648,49.375,5.506
				c7.65,0.861,15.548,3.686,21.613,7.295c8.772,5.223,39.653,23.275,51.392,30.136c2.03,1.188,4.574-0.286,4.574-2.649v-28.258
				c0-3.269,1.52-5.767,6.474-6.513c47.793-10.62,55.134-30.168,55.134-82.246C289.916,138.048,290.105,127.901,289.916,98.434
				L289.916,98.434z"/>
			<path id="Dress" fill="#FFFFFF" d="M181.605,209.337c-10.781-0.685-17.573,6.651-27.279,5.086
				c-9.705-1.558-21.732-7.987-26.525-9.901c-19.099-7.582-22.758,17.908-53.797-6.971c26.199-23.242,36.43-59.196,64.843-72.051
				h38.991c23.073,15.26,44.022,58.422,45.877,94.646C196.657,223.523,193.061,210.043,181.605,209.337L181.605,209.337z
				 M186.508,89.186c-1.393,3.437-6.774,22.052-8.67,26.827h-38.991c-1.944-5.055-7.523-23.276-8.946-26.827
				c-0.382-0.954-0.845-2.661-1.054-3.671c-0.686-3.311-0.71-6.738-0.065-10.07l5.496-21.37h3.695c1.639,0,2.967,1.337,2.967,2.986
				v2.448c0,11.666,7.272,19.856,17.403,19.856c10.131,0,17.403-8.19,17.403-19.856v-2.448c0-1.649,1.328-2.986,2.967-2.986h3.695
				l5.219,21.37c0.646,3.332,0.621,6.759-0.065,10.07C187.353,86.525,186.894,88.234,186.508,89.186L186.508,89.186z"/>
		</g>
	</g>
</g>
</svg>
